<?xml version="1.0" encoding="utf-8"?>
<!-- Generator: Adobe Illustrator 21.1.0, SVG Export Plug-In . SVG Version: 6.00 Build 0)  -->
<svg version="1.1" id="Layer_1" xmlns="http://www.w3.org/2000/svg" xmlns:xlink="http://www.w3.org/1999/xlink" x="0px" y="0px"
	 viewBox="0 0 1920 1280" style="enable-background:new 0 0 1920 1280;" xml:space="preserve">
<style type="text/css">
	.st0{fill:none;stroke:#001A73;stroke-miterlimit:10;}
</style>
<g>
	<polyline class="st0" points="1328,1280 1328,1128.4 1324.1,1122.8 1301.4,1122.8 1301.4,1237.2 1274,1237.2 1271.8,1231.6 
		1271.8,1119.4 1267.6,1111.3 1267.6,1183.2 1245.8,1183.2 1238.9,1169.5 1238.9,1069.2 1215.7,1033.7 1215.7,1111.3 1207.6,1111.3 
		1202.8,1102.3 1202.8,1017.8 1197.9,1010.4 1197.9,871.6 1202.8,870 1202.8,861.9 1193.8,853.6 1193.8,827.2 1202.8,827.2 
		1202.8,790.9 1198.3,788.7 1198.3,649.6 1202.8,649.6 1202.8,644.8 1193.8,644.8 1193.8,618.4 1202.8,617.3 1202.8,574.5 
		1193.8,574.5 1193.8,548.6 1198.3,546.2 1198.3,503.5 1193.8,503.5 1193.8,479 1198.3,474.8 1198.3,427.3 1202.8,423.1 
		1202.8,395.4 1236.4,362.5 1236.4,359.8 1250.1,345.5 1205.9,345.5 1205.9,341.6 1398.5,109.6 1489.6,109.6 1519.2,80.9 
		1676.5,80.9 1753.6,20.6 1804,20.6 1831.5,0 	"/>
	<polyline class="st0" points="1442.8,156.4 1442.8,123.3 1475.9,123.3 	"/>
	<polyline class="st0" points="1208.6,344.5 1398.7,116.9 1436.5,116.9 1436.5,162.6 	"/>
	<line class="st0" x1="1215.6" y1="342.7" x2="1404.2" y2="116.9"/>
	<line class="st0" x1="1408.7" y1="116.9" x2="1220.5" y2="341.1"/>
	<line class="st0" x1="1415.8" y1="116.9" x2="1225" y2="339.9"/>
	<line class="st0" x1="1231.9" y1="337.9" x2="1422.2" y2="116.9"/>
	<line class="st0" x1="1236.7" y1="336.4" x2="1427.3" y2="116.9"/>
	<line class="st0" x1="1242.6" y1="334.7" x2="1431.5" y2="116.9"/>
	<line class="st0" x1="1247.9" y1="333.2" x2="1435.7" y2="116.9"/>
	<line class="st0" x1="1252.6" y1="332.1" x2="1436.4" y2="122.6"/>
	<line class="st0" x1="1258.7" y1="330" x2="1436.5" y2="130.1"/>
	<line class="st0" x1="1265" y1="328.2" x2="1436.5" y2="138.4"/>
	<polyline class="st0" points="1417,1279.6 1417,1082.4 1434.4,1082.4 1493.6,1135.7 1493.6,1280 	"/>
	<polyline class="st0" points="1417,1082.4 1437.1,1105.3 1437.1,1280 	"/>
	<polyline class="st0" points="1437.1,1105.3 1470.7,1139.7 1470.7,1280 	"/>
	<polyline class="st0" points="1373.8,1151.5 1373.8,1255.2 1330.1,1192.6 	"/>
	<polygon class="st0" points="1361.8,1121.9 1347.7,1121.9 1314.7,1080.4 1314.7,1077.4 1328,1077.4 1328,1001.6 1314.7,986.2 
		1314.7,983.6 1330.1,983.6 1361.8,1014.9 	"/>
	<line class="st0" x1="1346.8" y1="1014.4" x2="1346.8" y2="1121.9"/>
	<line class="st0" x1="1330.1" y1="1157.1" x2="1361.8" y2="1200.3"/>
	<line class="st0" x1="1361.8" y1="1239.3" x2="1361.8" y2="1137"/>
	<polyline class="st0" points="1432.9,1062.8 1414.1,1062.8 1370.8,1022.1 1370.8,911.2 1387.5,911.2 1432.9,939.4 	"/>
	<polyline class="st0" points="1414.9,942.9 1388.8,924.9 1388.8,1021.3 1432.9,1059 	"/>
	<polygon class="st0" points="1417,923.2 1473.6,958.3 1493.6,958.3 1493.6,660.6 1417,657.6 	"/>
	<polyline class="st0" points="1437.6,662.3 1437.6,921.1 1471.5,941.2 	"/>
	<line class="st0" x1="1471.5" y1="815.7" x2="1437.6" y2="803.7"/>
	<line class="st0" x1="1471.5" y1="787.8" x2="1437.6" y2="778"/>
	<polyline class="st0" points="1314.7,764.3 1329.3,764.3 1361.8,774.6 1361.8,881.2 1347.7,881.2 1314.7,861 	"/>
	<line class="st0" x1="1332.7" y1="772.8" x2="1332.7" y2="858.9"/>
	<polyline class="st0" points="1222.6,1033.3 1222.6,885.5 1207.2,870.9 	"/>
	<polyline class="st0" points="1272.7,930.4 1253,913.3 1241.9,913.3 1241.9,989.6 1262,1014.4 	"/>
	<line class="st0" x1="1252.6" y1="927.5" x2="1252.6" y2="989.6"/>
	<line class="st0" x1="1274.9" y1="987" x2="1297.5" y2="1012.7"/>
	<line class="st0" x1="1301.8" y1="1014.4" x2="1328" y2="1044.4"/>
	<line class="st0" x1="1274.9" y1="1020" x2="1321.1" y2="1077.4"/>
	<polyline class="st0" points="1272.7,921.2 1246.8,897.5 1246.8,824.7 	"/>
	<line class="st0" x1="1272.7" y1="890.1" x2="1254.3" y2="875.9"/>
	<polyline class="st0" points="1323.2,1110 1301.8,1110 1301.8,1065.9 	"/>
	<line class="st0" x1="1328" y1="935.4" x2="1361.8" y2="963.9"/>
	<line class="st0" x1="1330.3" y1="971.7" x2="1361.8" y2="999.8"/>
	<line class="st0" x1="1275.6" y1="799" x2="1298.4" y2="809.6"/>
	<line class="st0" x1="1302.6" y1="812.1" x2="1325.5" y2="822.7"/>
	<polyline class="st0" points="1272.7,745.1 1254.3,738.7 1241.9,738.7 1241.9,815.7 1259.8,827.4 	"/>
	<line class="st0" x1="1252.6" y1="744.7" x2="1252.6" y2="812.1"/>
	<polyline class="st0" points="1222.6,650 1222.6,799 1213.7,799 	"/>
	<polyline class="st0" points="1246.8,653.2 1246.8,726.5 1272.7,734.4 	"/>
	<polyline class="st0" points="1257.3,653.2 1257.3,700.5 1272.7,704.4 	"/>
	<polygon class="st0" points="1373.7,657.6 1373.7,764.3 1329.9,750.1 1329.9,657.6 	"/>
	<polyline class="st0" points="1432.4,640 1415.1,640 1372.1,640 1372.1,529 1414.7,516.4 1432.4,516.4 	"/>
	<line class="st0" x1="1388.7" y1="531.8" x2="1388.7" y2="637"/>
	<polyline class="st0" points="1314.7,640 1361.8,640 1361.8,536.5 1347.3,534.6 1316.6,544 	"/>
	<polyline class="st0" points="1272.7,559.4 1259.8,559.4 1241.9,564.1 1241.9,640 1261.8,640 1272.7,640 	"/>
	<polyline class="st0" points="1213.7,572.4 1230.2,567.3 1230.2,638.7 1213.7,640 	"/>
	<line class="st0" x1="1275.2" y1="611.8" x2="1297.6" y2="609.5"/>
	<line class="st0" x1="1302" y1="609.5" x2="1326.8" y2="607.5"/>
	<polyline class="st0" points="1208.5,567.3 1222.6,562.2 1222.6,415.2 1213.7,415.2 1213.7,559.4 1197.9,564.9 	"/>
	<polyline class="st0" points="1259.8,452.2 1241.9,464 1241.9,389.5 1259.8,371.4 1275.2,371.4 	"/>
	<line class="st0" x1="1275.2" y1="423.8" x2="1297.6" y2="408.8"/>
	<line class="st0" x1="1302" y1="406.9" x2="1326.8" y2="389.1"/>
	<polyline class="st0" points="1315.4,420.6 1346.9,402.1 1346.9,296.5 1315.4,323.3 	"/>
	<polyline class="st0" points="1361.8,296.5 1361.8,400.6 1331.1,420.6 	"/>
	<polygon class="st0" points="1417.4,499.9 1435.7,499.9 1493.5,482.6 1493.5,183.8 1475.9,183.8 1417.4,234.3 	"/>
	<polyline class="st0" points="1435.7,488.9 1435.7,353.5 1435.7,235.8 1471.8,206.7 	"/>
	<line class="st0" x1="1471.8" y1="332.1" x2="1435.7" y2="353.5"/>
	<line class="st0" x1="1471.8" y1="358.6" x2="1435.7" y2="377.4"/>
	<line class="st0" x1="1361.8" y1="485.7" x2="1331.1" y2="495.8"/>
	<line class="st0" x1="1272.7" y1="519.2" x2="1252.6" y2="525.4"/>
	<polyline class="st0" points="1374,412.7 1374,516.4 1331.1,531.8 	"/>
	<polyline class="st0" points="1246.8,482.1 1246.8,554.5 1272.7,547.9 	"/>
	<polyline class="st0" points="1519.2,80.9 1519.2,983.6 1519.2,1280 	"/>
	<line class="st0" x1="1855" y1="0" x2="1855" y2="1280"/>
	<line class="st0" x1="1753.6" y1="20.6" x2="1753.6" y2="1280"/>
	<line class="st0" x1="1803.5" y1="20.6" x2="1803.5" y2="1280"/>
	<polyline class="st0" points="1519.2,257.9 1573.3,218.8 1753.6,218.8 	"/>
	<polyline class="st0" points="1519.2,318.8 1574.8,286.5 1753.6,286.5 	"/>
	<polyline class="st0" points="1519.2,423.8 1574.8,402.4 1753.6,402.4 	"/>
	<polyline class="st0" points="1519.2,485.7 1573.3,468 1753.6,468 	"/>
	<polyline class="st0" points="1519.2,591.7 1573.3,587.3 1753.6,587.3 	"/>
	<polyline class="st0" points="1519.2,640 1575.3,640 1753.6,640 	"/>
	<polyline class="st0" points="1519.2,756.2 1572.7,769 1753.6,769 	"/>
	<polyline class="st0" points="1519.2,815.7 1573.3,834 1753.6,834 	"/>
	<polyline class="st0" points="1519.2,921.2 1573.8,949.7 1753.6,949.7 	"/>
	<polyline class="st0" points="1519.2,1087.9 1574.3,1131.3 1753.6,1131.3 	"/>
	<polyline class="st0" points="1519.2,1148.8 1574.8,1200.3 1753.6,1200.3 	"/>
	<line class="st0" x1="1574.8" y1="1200.3" x2="1574.8" y2="1131.3"/>
	<polyline class="st0" points="1519.2,983.6 1574.8,1016.4 1753.6,1016.4 	"/>
	<line class="st0" x1="1573.8" y1="949.7" x2="1574.8" y2="1016.4"/>
	<line class="st0" x1="1574.3" y1="769" x2="1574.3" y2="834"/>
	<line class="st0" x1="1573.3" y1="587.3" x2="1573.3" y2="640"/>
	<line class="st0" x1="1574.8" y1="402.4" x2="1574.8" y2="468"/>
	<line class="st0" x1="1574.8" y1="218.8" x2="1574.8" y2="286.5"/>
	<polyline class="st0" points="1205.9,345.5 1270.2,326.7 1436.4,147.3 	"/>
	<line class="st0" x1="1236.4" y1="362.5" x2="1489.6" y2="109.6"/>
</g>
</svg>
