<?xml version="1.0" encoding="utf-8"?>
<!-- Generator: Adobe Illustrator 21.1.0, SVG Export Plug-In . SVG Version: 6.00 Build 0)  -->
<svg version="1.1" id="Layer_1" xmlns="http://www.w3.org/2000/svg" xmlns:xlink="http://www.w3.org/1999/xlink" x="0px" y="0px"
	 viewBox="0 0 1000 664" style="enable-background:new 0 0 1000 664;" xml:space="preserve">
<style type="text/css">
	.st0{fill:none;stroke:#808285;stroke-miterlimit:10;}
</style>
<polyline class="st0" points="231.7,636.9 231.7,609.9 284.2,606.5 284.2,489.5 267.9,494.6 234.4,491.2 216.5,497.2 216.5,484.2 
	234.4,477.9 266.9,481.8 "/>
<polyline class="st0" points="224.1,592.3 248.6,589 270.5,590.7 "/>
<polyline class="st0" points="270.5,603.5 249.1,602 224.1,604.9 224.1,592.2 "/>
<polyline class="st0" points="266.9,566.9 234.6,565.6 216.5,568.2 216.5,556 234.6,551.6 266.9,553.8 "/>
<polyline class="st0" points="270.5,530.6 248.9,528.5 224.1,534.3 224.1,522.2 248.9,515 270.5,517.2 "/>
<line class="st0" x1="234.6" y1="551.6" x2="234.6" y2="565.6"/>
<line class="st0" x1="248.9" y1="515" x2="248.9" y2="528.5"/>
<line class="st0" x1="231.7" y1="552.3" x2="231.7" y2="535.7"/>
<polyline class="st0" points="231.7,520 231.7,498.7 216.5,497.2 "/>
<polyline class="st0" points="231.7,478.8 231.7,465.1 224.1,464 "/>
<polyline class="st0" points="270.5,457.2 248.9,454.3 224.1,464 224.1,451.7 248.9,440.6 270.5,444 "/>
<polyline class="st0" points="231.7,448.3 231.7,427.8 216.5,425.9 "/>
<polyline class="st0" points="266.9,422.5 234.4,416.8 216.5,425.9 216.5,412.8 234.4,403.7 266.9,409.4 "/>
<polyline class="st0" points="270.5,384.7 248.8,380.1 224.1,393.4 224.1,380.4 248.8,367.1 270.5,371.7 "/>
<polyline class="st0" points="266,349.8 234.8,342.1 216.5,354.1 216.5,340.9 234.8,328.9 266,336.6 "/>
<polyline class="st0" points="231.7,405.1 231.7,395.6 224.1,393.4 "/>
<polyline class="st0" points="231.7,376.3 231.7,357.3 216.5,354.1 "/>
<polyline class="st0" points="260.4,465.1 277.7,459.2 277.7,488.1 "/>
<polyline class="st0" points="260.4,429.5 277.7,421.4 277.7,451.7 "/>
<polyline class="st0" points="260.4,393.4 277.7,384.5 277.7,414.6 "/>
<polyline class="st0" points="260.4,358 277.7,348.1 277.7,378 "/>
<polyline class="st0" points="260.4,322.6 277.7,311.3 277.7,340.9 "/>
<polyline class="st0" points="231.7,330.9 231.7,323.3 247.3,312 247.3,303.8 251.5,300.2 260.4,302.8 261.9,301.7 261.9,277.4 
	285.4,259.7 285.4,203.2 321.6,170.4 321.6,141 343.7,120.1 396,144.2 396,162.9 441.9,127 691.4,248.9 691.4,273.7 711.9,265.8 
	742,279.8 742,301.9 760.5,309.8 760.5,394.4 762,394.4 762,461.8 760.3,461.8 760.3,500.5 762,501.3 762,567 771.2,567.8 
	771.2,570.4 762.3,570.4 762.3,601.4 763.2,603.2 771.2,603.2 771.2,605.5 761,605.5 761,640.7 "/>
<polygon class="st0" points="303.8,598.1 303.8,566.2 307.9,565.6 307.9,597.3 "/>
<polygon class="st0" points="303.8,559 307.9,558.4 307.9,526.4 303.8,527.4 "/>
<polygon class="st0" points="304.3,488.1 304.3,520 307.9,519.2 307.9,486.9 "/>
<polygon class="st0" points="304.3,481 307.9,479.8 307.9,447.2 304.3,448.7 "/>
<polygon class="st0" points="304.3,409.9 308.5,408.2 308.5,439.8 304.3,442 "/>
<polygon class="st0" points="304.3,402.6 307.9,400.7 307.9,368.6 304.3,370.6 "/>
<polygon class="st0" points="304.3,363 307.9,361.3 307.9,329.4 304.3,332 "/>
<polygon class="st0" points="304.3,324.6 307.9,322.1 307.9,289.8 304.3,292.3 "/>
<polygon class="st0" points="304.3,285.6 307.9,282.7 307.9,250.3 304.7,253.6 "/>
<polygon class="st0" points="309.9,248.7 309.9,255.8 320.9,247.7 320.9,240.8 "/>
<polygon class="st0" points="310,288.4 310,295.1 317.8,289.8 317.8,283.3 "/>
<polygon class="st0" points="313.8,325.4 313.8,332.6 320.9,328.9 320.9,321.2 "/>
<polyline class="st0" points="309.9,367.5 309.9,373.7 318,369.9 318,363.5 309.9,367.1 "/>
<polygon class="st0" points="309.7,447.2 309.7,453.4 318.1,450.3 318.1,443.8 "/>
<polygon class="st0" points="312.5,485.6 312.5,492.5 320.9,490.5 320.9,483.1 "/>
<polygon class="st0" points="309.9,525.9 309.9,532.3 318.1,530.7 318.1,524 "/>
<polygon class="st0" points="311.9,565.4 311.9,572.1 320.1,570.9 320.1,564.3 "/>
<polyline class="st0" points="343.4,221.8 343.4,259.1 320.9,274.3 320.9,636.9 "/>
<line class="st0" x1="320.8" y1="479.3" x2="407.7" y2="453.4"/>
<line class="st0" x1="261.9" y1="277.4" x2="284.2" y2="285.6"/>
<line class="st0" x1="343.7" y1="203.9" x2="396" y2="162.9"/>
<line class="st0" x1="371.7" y1="181.9" x2="407.5" y2="198.1"/>
<polyline class="st0" points="363,230 330.5,216.5 330.5,213.2 343.7,203.9 343.7,120.1 "/>
<polygon class="st0" points="348.2,262.9 348.2,299.2 365.2,289.2 365.2,251.9 "/>
<polygon class="st0" points="348.2,305.4 348.2,341.7 365.2,332.6 365.2,295.1 "/>
<polygon class="st0" points="348.2,347.5 348.2,383.8 365.2,376.2 365.2,339 "/>
<polygon class="st0" points="348.2,390.1 348.2,426.6 365.2,420.1 365.2,382.8 "/>
<polygon class="st0" points="348.2,432.9 348.2,468.4 365.2,464.1 365.2,426.6 "/>
<line class="st0" x1="348.2" y1="285.6" x2="364.5" y2="275.6"/>
<line class="st0" x1="348.2" y1="328.4" x2="365.2" y2="319.3"/>
<line class="st0" x1="348.2" y1="371.1" x2="365.2" y2="363"/>
<line class="st0" x1="348.2" y1="413.5" x2="365.2" y2="406.9"/>
<line class="st0" x1="348.2" y1="456" x2="365.2" y2="450.5"/>
<polygon class="st0" points="348.2,474.7 348.2,511.7 365.2,507.7 365.2,469.4 "/>
<polygon class="st0" points="348.2,517.3 348.2,554.3 365.2,551.8 365.2,513.9 "/>
<polygon class="st0" points="348.7,559.8 348.7,596.3 365.2,595.6 365.2,557.7 "/>
<line class="st0" x1="348.2" y1="498.1" x2="365.2" y2="494"/>
<line class="st0" x1="348.2" y1="540.7" x2="365.2" y2="537.9"/>
<line class="st0" x1="348.7" y1="582.7" x2="365.2" y2="581.9"/>
<polyline class="st0" points="449.2,240.8 410.1,226.2 379.9,246.2 379.9,227.8 410.2,207.1 449.2,222.3 "/>
<polyline class="st0" points="448.3,272.9 423.4,264.2 393.2,281.9 393.2,299.2 423.8,282.4 449.2,291 "/>
<polyline class="st0" points="449.2,322.2 410.2,310.8 381.5,326 381.5,344.1 410.4,329.4 448.7,341.7 "/>
<polyline class="st0" points="449.2,372.6 423.9,366.1 393.2,379 393.2,397 423.4,384.8 449.2,391 "/>
<polyline class="st0" points="449.2,422.9 410.2,414.9 379.9,425.7 379.9,443.8 410.1,433.9 449.2,441.3 642.1,477.6 "/>
<polyline class="st0" points="449.2,473.1 424.1,469.4 394.7,477.2 394.7,494.7 423.9,487.5 449.2,490.5 "/>
<polyline class="st0" points="449.2,522.9 410.4,518.7 379.9,524.9 379.9,542.7 410.4,537.9 449.2,540.7 "/>
<path class="st0" d="M364.5,246.7c0.5-0.4,14-9.2,14-9.2"/>
<line class="st0" x1="382.2" y1="274.1" x2="366.3" y2="283.3"/>
<line class="st0" x1="369.9" y1="248.3" x2="369.9" y2="281.3"/>
<line class="st0" x1="365.2" y1="335.2" x2="379.5" y2="327.5"/>
<line class="st0" x1="367.4" y1="371.9" x2="382.1" y2="365.1"/>
<line class="st0" x1="370" y1="336.6" x2="370" y2="371.1"/>
<line class="st0" x1="366.7" y1="461.4" x2="381.9" y2="456.6"/>
<line class="st0" x1="365.2" y1="422.5" x2="381.9" y2="415.9"/>
<line class="st0" x1="369.8" y1="425.1" x2="369.8" y2="460.4"/>
<polyline class="st0" points="425.4,211.2 444.5,199.2 444.5,219.1 "/>
<polyline class="st0" points="444.5,270.2 444.5,248.3 425.4,259.7 425.4,263.7 "/>
<polyline class="st0" points="444.5,319.9 444.5,298 424.7,308.4 424.7,313.4 "/>
<polyline class="st0" points="444.5,369.5 444.5,348.3 424.7,356.1 424.7,365.1 "/>
<polyline class="st0" points="444.5,420.9 444.5,397 424.7,404.7 424.7,416.4 "/>
<polyline class="st0" points="424.7,467.8 424.7,453.3 444.5,447.5 444.5,470.9 "/>
<polyline class="st0" points="444.5,521.7 444.5,498.1 425.6,502.1 425.6,519.2 "/>
<polyline class="st0" points="425.6,570.2 425.6,550.1 444.5,547.1 444.5,570.9 "/>
<line class="st0" x1="364.2" y1="511.7" x2="381.9" y2="508.4"/>
<line class="st0" x1="367.6" y1="550.1" x2="381.9" y2="547.8"/>
<line class="st0" x1="369.8" y1="513" x2="369.8" y2="549.6"/>
<polygon class="st0" points="488.4,207.1 488.4,299.2 515.9,308.4 515.9,218.8 "/>
<polyline class="st0" points="472.1,299.2 500,308.4 500,350.9 472.1,342.2 "/>
<polygon class="st0" points="488.4,353.4 515.9,360.6 515.9,449.3 488.4,443.9 "/>
<polyline class="st0" points="498.6,453.4 472,448.7 472,489.1 498.6,493.1 "/>
<polyline class="st0" points="488.4,586.8 488.4,499.2 515.9,502.7 515.9,588.3 "/>
<polyline class="st0" points="551.2,592.5 478.1,589.2 448.5,591.4 423.3,590.3 392.5,592.5 392.5,575.3 422,571.9 449.2,573 
	449.2,169.4 "/>
<line class="st0" x1="562.7" y1="220.7" x2="596.6" y2="202.6"/>
<line class="st0" x1="586.8" y1="231.6" x2="586.8" y2="207.4"/>
<path class="st0" d="M615,244.4c0.6,0.3,37.2-14.6,37.2-14.6"/>
<line class="st0" x1="641.3" y1="256.2" x2="641.3" y2="234.2"/>
<line class="st0" x1="710.9" y1="288.1" x2="710.9" y2="265.8"/>
<polygon class="st0" points="551.7,238.9 551.7,278.7 582.3,290 582.3,252.5 "/>
<polygon class="st0" points="559.4,288.1 559.4,325.1 582.3,333.7 582.3,296 "/>
<polygon class="st0" points="551.7,329.1 551.7,368.6 582.3,376.8 582.3,339.9 "/>
<polygon class="st0" points="559.4,376.8 559.4,414.9 582.3,420.6 582.3,383.5 "/>
<polygon class="st0" points="551.7,419.4 551.7,458.4 582.3,464.5 582.3,426.9 "/>
<polygon class="st0" points="559.1,466 559.1,505 582.3,508.2 582.3,470.9 "/>
<polygon class="st0" points="551.2,510.2 551.2,548.3 582.3,551.1 582.3,514 "/>
<polygon class="st0" points="558.3,555.6 558.3,594.5 582.3,595.2 582.3,557.7 "/>
<polygon class="st0" points="591.8,513.4 591.8,551.1 613.9,553.2 613.9,516.4 "/>
<polygon class="st0" points="591.8,425.8 591.8,464.5 613.9,468.5 613.9,432 "/>
<polyline class="st0" points="645.5,516 619.9,512.2 619.9,474.9 645.5,480.1 "/>
<polyline class="st0" points="646.3,433.6 620.2,427.3 620.2,390.4 646.3,397.6 "/>
<polygon class="st0" points="591.8,338.6 591.8,376.8 613.9,383.4 613.9,346 "/>
<polyline class="st0" points="646.3,351.8 620.2,342.8 620.2,306 646.3,316.5 "/>
<polygon class="st0" points="591.8,251.7 591.8,290.7 613.9,298.5 613.9,261.7 "/>
<polyline class="st0" points="647.7,298.5 660.5,293 689.5,304.1 "/>
<polyline class="st0" points="647.7,310.8 660.5,305.3 689.5,316.4 "/>
<path class="st0" d="M647.7,338.6c0.5,0.1,13.3-4.5,13.3-4.5l28.5,9.9"/>
<path class="st0" d="M647.7,351.9c0.5,0.1,13.3-4.5,13.3-4.5l28.5,9.9"/>
<polyline class="st0" points="647.7,380.4 660.5,376.1 689.5,384.6 "/>
<polyline class="st0" points="647.7,393.7 660.5,389.4 689.5,397.8 "/>
<polyline class="st0" points="647.7,421.1 660.7,417.8 689.5,425.2 "/>
<polyline class="st0" points="647.7,433.9 660.7,430.5 689.5,438 "/>
<path class="st0" d="M647.7,462.1c0,0,12.3-2,12.7-2.3c0.5-0.4,29.1,5.7,29.1,5.7"/>
<path class="st0" d="M647.7,474.4c0,0,12.3-2,12.7-2.3c0.5-0.4,29.1,5.7,29.1,5.7"/>
<polyline class="st0" points="647.7,502.9 661,500.8 688.9,505.6 "/>
<polyline class="st0" points="647.7,515.8 661,513.7 688.9,518.4 "/>
<polyline class="st0" points="647.7,543.7 660.7,542.2 688.9,545.4 "/>
<polyline class="st0" points="647.7,557.1 660.7,555.6 689.4,558.6 "/>
<polyline class="st0" points="648.3,584.5 660.8,584.5 688.9,585.2 "/>
<polyline class="st0" points="648.3,597.6 660.7,597.2 688.9,598.2 "/>
<polyline class="st0" points="656.1,284.2 667.4,289 667.4,295.5 "/>
<polyline class="st0" points="656.1,324.8 666.8,328.1 666.8,336.1 "/>
<polyline class="st0" points="656.1,364.6 666.8,368.1 666.8,377.9 "/>
<polyline class="st0" points="655.9,404.6 666.7,407.8 666.7,419.5 "/>
<polyline class="st0" points="655.9,444.9 666.7,447.2 666.7,460.9 "/>
<polyline class="st0" points="655.9,484.5 668.3,487.3 668.3,502.3 "/>
<polyline class="st0" points="655.9,524.5 667.3,526.2 667.3,543 "/>
<polyline class="st0" points="655.9,564.5 667.3,565.8 667.3,584.5 "/>
<line class="st0" x1="691.5" y1="298.5" x2="691.5" y2="332"/>
<line class="st0" x1="691.5" y1="337.7" x2="691.5" y2="370.1"/>
<line class="st0" x1="691.5" y1="375.6" x2="691.5" y2="408.8"/>
<line class="st0" x1="691.5" y1="413.7" x2="691.5" y2="446.2"/>
<line class="st0" x1="691.5" y1="452.9" x2="691.5" y2="484.5"/>
<line class="st0" x1="691.5" y1="490.9" x2="691.5" y2="522.6"/>
<line class="st0" x1="691.5" y1="529.3" x2="691.5" y2="561"/>
<line class="st0" x1="725.7" y1="533.8" x2="725.7" y2="563.8"/>
<line class="st0" x1="725.7" y1="496.8" x2="725.7" y2="528.1"/>
<line class="st0" x1="725.2" y1="459.7" x2="725.2" y2="491.7"/>
<line class="st0" x1="725.2" y1="423" x2="725.2" y2="454.8"/>
<line class="st0" x1="725.2" y1="386.8" x2="725.2" y2="417.8"/>
<line class="st0" x1="725.2" y1="349.6" x2="725.2" y2="381.1"/>
<line class="st0" x1="725.2" y1="313.4" x2="725.2" y2="344"/>
<line class="st0" x1="725.2" y1="332.9" x2="696.5" y2="322"/>
<line class="st0" x1="725.2" y1="370.8" x2="696.5" y2="359.9"/>
<line class="st0" x1="725.7" y1="407.8" x2="696.6" y2="398.1"/>
<line class="st0" x1="726" y1="443.8" x2="696.3" y2="436.2"/>
<line class="st0" x1="725.1" y1="480.7" x2="696.3" y2="474.9"/>
<line class="st0" x1="725.7" y1="517.2" x2="696.7" y2="512.5"/>
<line class="st0" x1="725.7" y1="554.1" x2="696.7" y2="551.1"/>
<polyline class="st0" points="757.6,602.5 698.4,600.2 698.4,563.1 757.6,567.9 "/>
<polyline class="st0" points="709.1,323.9 716.3,321.5 716.3,329.6 "/>
<polyline class="st0" points="709.1,359.9 716.3,357.9 716.3,367.5 "/>
<polyline class="st0" points="709.1,396.5 716.3,394.7 716.3,404.6 "/>
<polyline class="st0" points="709.1,432.4 716.3,430.5 716.3,441.6 "/>
<polyline class="st0" points="709.1,468.7 716.3,467 716.3,479.1 "/>
<polyline class="st0" points="709.1,504.5 716.3,503.2 716.3,515.7 "/>
<polyline class="st0" points="709.1,540.8 717,539.9 717,553.1 "/>
<line class="st0" x1="713" y1="566.5" x2="713" y2="600.9"/>
<line class="st0" x1="718.2" y1="566.5" x2="718.2" y2="600.9"/>
<line class="st0" x1="734.1" y1="568.5" x2="734.1" y2="601.8"/>
<line class="st0" x1="737.5" y1="568.9" x2="737.5" y2="601.5"/>
<line class="st0" x1="582.3" y1="537.6" x2="559.1" y2="535.6"/>
<line class="st0" x1="582.3" y1="450.4" x2="559.1" y2="446.2"/>
<line class="st0" x1="582.3" y1="406.6" x2="559.1" y2="400.7"/>
<line class="st0" x1="582.3" y1="363.6" x2="559.1" y2="356.1"/>
<line class="st0" x1="582.3" y1="319.6" x2="559.1" y2="311.7"/>
<line class="st0" x1="582.3" y1="276.4" x2="559.1" y2="267.4"/>
<polyline class="st0" points="758.7,323 747.2,318 747.2,349.6 758.7,353.9 "/>
<polyline class="st0" points="737.6,351 752,356.1 752,386.1 737.6,381.1 "/>
<polyline class="st0" points="758.7,393.6 747.2,389.4 747.2,457.5 758.7,460.5 "/>
<polyline class="st0" points="751.8,464.4 737.3,460.5 737.3,491.7 751.8,494 "/>
<polyline class="st0" points="758.7,501.6 746.7,499 746.7,565.2 757.6,566 "/>
<polyline class="st0" points="460.2,644.4 460.2,597.1 511,598.5 511,634.7 "/>
<polyline class="st0" points="446.2,644.4 446.2,596.3 424.7,596.3 424.7,613.9 436.4,614.5 436.4,644.4 "/>
<polyline class="st0" points="260.4,501.3 277.7,496 277.7,526.4 "/>
<polyline class="st0" points="259.7,537.1 277.7,533.2 277.7,562.6 "/>
<polyline class="st0" points="260.4,572.8 277.7,570.1 277.7,599.8 "/>
<line class="st0" x1="269.6" y1="607.4" x2="269.6" y2="634.1"/>
<line class="st0" x1="239.7" y1="609.4" x2="239.7" y2="636.9"/>
<line class="st0" x1="235.5" y1="609.7" x2="235.5" y2="636.9"/>
<line class="st0" x1="254.8" y1="608.4" x2="254.8" y2="636.9"/>
<polyline class="st0" points="296.2,635.3 296.2,624.6 302.3,624.6 302.3,635.3 "/>
<polyline class="st0" points="349.8,636.9 349.8,603.5 416.8,599.8 416.8,635.3 "/>
<polyline class="st0" points="585.5,644.4 585.5,601 648.3,603.7 688.9,604.3 688.9,644.4 "/>
<line class="st0" x1="604.5" y1="601.8" x2="604.5" y2="644.4"/>
<line class="st0" x1="616" y1="602.5" x2="616" y2="644.4"/>
<line class="st0" x1="592.9" y1="601.8" x2="592.9" y2="644.4"/>
<line class="st0" x1="600.3" y1="601.8" x2="600.3" y2="644.4"/>
<line class="st0" x1="659.7" y1="603.9" x2="659.7" y2="644.4"/>
<line class="st0" x1="669.4" y1="604" x2="669.4" y2="644.4"/>
<polyline class="st0" points="691.5,644.4 691.5,606.1 725.7,607.5 725.7,635.9 "/>
<polyline class="st0" points="728,635.9 728,607.8 758.7,609.3 758.7,639.1 "/>
<line class="st0" x1="488.4" y1="550" x2="510.7" y2="551.7"/>
<line class="st0" x1="488.4" y1="540.5" x2="510.7" y2="542.9"/>
<polyline class="st0" points="394.3,574.1 394.3,554.3 408.1,552.7 408.1,571.9 "/>
<polyline class="st0" points="231.7,591.3 231.7,570.1 216.5,568.2 "/>
<line class="st0" x1="489.9" y1="241.3" x2="510.2" y2="249.2"/>
<line class="st0" x1="489.9" y1="221.7" x2="510.2" y2="229.7"/>
<line class="st0" x1="489.9" y1="252.6" x2="510.2" y2="260.6"/>
<line class="st0" x1="489.9" y1="269.5" x2="510.2" y2="277.5"/>
<line class="st0" x1="489.9" y1="290" x2="509.7" y2="296.5"/>
<line class="st0" x1="490" y1="366.1" x2="509.6" y2="371.4"/>
<line class="st0" x1="490" y1="385.1" x2="509.6" y2="390.3"/>
<line class="st0" x1="490" y1="397" x2="511" y2="402"/>
<line class="st0" x1="490" y1="406.1" x2="511" y2="410.8"/>
<line class="st0" x1="490" y1="414.2" x2="511" y2="418.9"/>
<line class="st0" x1="490" y1="433.1" x2="511" y2="437.9"/>
<line class="st0" x1="498.6" y1="435.1" x2="498.6" y2="416.1"/>
<line class="st0" x1="498" y1="387.2" x2="498" y2="368.3"/>
<line class="st0" x1="497.6" y1="292.5" x2="497.6" y2="272.5"/>
<line class="st0" x1="497.6" y1="244.3" x2="497.6" y2="224.8"/>
<line class="st0" x1="264.9" y1="282.9" x2="281.4" y2="287.8"/>
<line class="st0" x1="264.9" y1="285.6" x2="278.9" y2="289.8"/>
<line class="st0" x1="264.9" y1="288.2" x2="276.7" y2="291.6"/>
<line class="st0" x1="264.9" y1="290.7" x2="274" y2="293.3"/>
<line class="st0" x1="264.9" y1="293.3" x2="271.5" y2="295.1"/>
<line class="st0" x1="264.9" y1="295.8" x2="269" y2="297"/>
<line class="st0" x1="269" y1="277.4" x2="284.2" y2="265.9"/>
<line class="st0" x1="271.5" y1="278.1" x2="284.2" y2="268.9"/>
<line class="st0" x1="274" y1="278.7" x2="284.2" y2="271.3"/>
<line class="st0" x1="276.7" y1="279.5" x2="284.2" y2="274.1"/>
<line class="st0" x1="279.1" y1="280.3" x2="284.2" y2="276.5"/>
<line class="st0" x1="281.4" y1="281" x2="284.2" y2="279.1"/>
<line class="st0" x1="346.1" y1="227" x2="360.1" y2="232.1"/>
<line class="st0" x1="346.1" y1="229.6" x2="357.8" y2="234"/>
<line class="st0" x1="346.1" y1="232.5" x2="355.4" y2="235.7"/>
<line class="st0" x1="346.1" y1="235.2" x2="352.4" y2="237.2"/>
<line class="st0" x1="346.1" y1="237.8" x2="348.9" y2="238.8"/>
<line class="st0" x1="336" y1="215.8" x2="375.3" y2="185.2"/>
<line class="st0" x1="338.9" y1="216.8" x2="378.2" y2="186.2"/>
<line class="st0" x1="341.2" y1="217.7" x2="380.6" y2="187.1"/>
<line class="st0" x1="343.7" y1="218.2" x2="383" y2="187.6"/>
<line class="st0" x1="345.8" y1="219.2" x2="385.1" y2="188.6"/>
<line class="st0" x1="348" y1="219.9" x2="386.6" y2="190"/>
<line class="st0" x1="350.2" y1="220.9" x2="386.7" y2="192.5"/>
<line class="st0" x1="352" y1="221.8" x2="389" y2="193.1"/>
<line class="st0" x1="354.2" y1="222.4" x2="391.1" y2="193.8"/>
<line class="st0" x1="356.1" y1="223.5" x2="393.2" y2="194.7"/>
<line class="st0" x1="358.5" y1="224.1" x2="395.5" y2="195.4"/>
<line class="st0" x1="360.9" y1="225.1" x2="397.9" y2="196.4"/>
<line class="st0" x1="363" y1="225.6" x2="399.7" y2="197.1"/>
<line class="st0" x1="364.7" y1="226.7" x2="401.6" y2="198.1"/>
<polyline class="st0" points="378.2,182.8 443.1,132.8 592.4,204.8 "/>
<polyline class="st0" points="379.9,183.4 443.8,135.2 590.5,205.9 "/>
<polyline class="st0" points="383,184.6 444.5,137.8 588.6,206.9 "/>
<polyline class="st0" points="385.6,185.8 444.5,140.6 586,208.3 "/>
<polyline class="st0" points="387.9,187.1 445.6,143.1 583.3,209.1 "/>
<polyline class="st0" points="391.1,188.1 446.2,146.5 581.8,210.5 "/>
<polyline class="st0" points="393.2,189.3 447,149 579.7,211.7 "/>
<polyline class="st0" points="396.6,190 447.6,151.8 577.1,213.1 "/>
<polyline class="st0" points="398.2,191.7 448.3,154.8 574.5,214.4 "/>
<polyline class="st0" points="407.5,198.1 407.5,186.2 416,180.7 426.7,185.6 449.2,169.4 641.3,256.2 648.7,253 655.7,256.2 
	655.7,261.8 669.5,268 669.5,296 "/>
<line class="st0" x1="401.6" y1="192.5" x2="407.5" y2="188.2"/>
<line class="st0" x1="403.9" y1="193.1" x2="407.5" y2="190.6"/>
<line class="st0" x1="405.7" y1="194.2" x2="407.5" y2="193.1"/>
<polyline class="st0" points="417.8,180.3 449.1,157.8 571.7,216 "/>
<polyline class="st0" points="420.4,181.9 449.9,161.4 569,217.4 "/>
<polyline class="st0" points="424.3,183.4 450.4,164.8 565.8,219.1 "/>
<line class="st0" x1="595.7" y1="205.9" x2="645.6" y2="230.2"/>
<line class="st0" x1="593.8" y1="206.9" x2="643.5" y2="230.9"/>
<line class="st0" x1="591.6" y1="208.3" x2="640.9" y2="231.6"/>
<line class="st0" x1="589.5" y1="209.1" x2="639" y2="232.7"/>
<line class="st0" x1="588" y1="210" x2="637.2" y2="234.2"/>
<line class="st0" x1="587.5" y1="211.7" x2="635.2" y2="235.3"/>
<line class="st0" x1="587.5" y1="213.8" x2="632.3" y2="236.1"/>
<line class="st0" x1="587.5" y1="216" x2="629.3" y2="237.1"/>
<line class="st0" x1="587.5" y1="218" x2="626.9" y2="238.1"/>
<line class="st0" x1="587.5" y1="220" x2="624.7" y2="238.9"/>
<line class="st0" x1="587.5" y1="222.1" x2="621.9" y2="239.5"/>
<line class="st0" x1="587.5" y1="224.5" x2="619.6" y2="240.8"/>
<line class="st0" x1="587.5" y1="226.5" x2="617.5" y2="241.8"/>
<line class="st0" x1="587.5" y1="229.4" x2="615" y2="242.5"/>
<line class="st0" x1="691.5" y1="276.3" x2="710.9" y2="268.6"/>
<line class="st0" x1="691.5" y1="277.7" x2="710.9" y2="270.2"/>
<line class="st0" x1="693.2" y1="278.4" x2="710.9" y2="271.9"/>
<line class="st0" x1="695" y1="279.2" x2="710.9" y2="273.6"/>
<line class="st0" x1="696.9" y1="280.1" x2="710.9" y2="275.1"/>
<line class="st0" x1="698.5" y1="280.9" x2="710.9" y2="276.6"/>
<line class="st0" x1="700.3" y1="281.9" x2="710.9" y2="278.4"/>
<line class="st0" x1="701.5" y1="283" x2="710.9" y2="280.1"/>
<line class="st0" x1="703" y1="283.7" x2="710.9" y2="281.6"/>
<line class="st0" x1="704.4" y1="284.6" x2="710.9" y2="283"/>
<line class="st0" x1="706.2" y1="285.2" x2="710.9" y2="284.1"/>
<line class="st0" x1="707.7" y1="286" x2="710.9" y2="285.2"/>
<line class="st0" x1="713.6" y1="269.4" x2="739.9" y2="281.6"/>
<line class="st0" x1="713.6" y1="271.9" x2="739.9" y2="284.1"/>
<line class="st0" x1="713.6" y1="274.5" x2="739.9" y2="286.9"/>
<line class="st0" x1="713.6" y1="277.2" x2="739.9" y2="289.3"/>
<line class="st0" x1="713.6" y1="279.9" x2="739.9" y2="291.9"/>
<line class="st0" x1="713.6" y1="282.6" x2="739.9" y2="294.5"/>
<line class="st0" x1="713.6" y1="285.6" x2="739.9" y2="296.7"/>
<line class="st0" x1="713.6" y1="287.7" x2="739.9" y2="299.2"/>
</svg>
