<?xml version="1.0" encoding="utf-8"?>
<!-- Generator: Adobe Illustrator 21.1.0, SVG Export Plug-In . SVG Version: 6.00 Build 0)  -->
<svg version="1.1" id="Layer_1" xmlns="http://www.w3.org/2000/svg" xmlns:xlink="http://www.w3.org/1999/xlink" x="0px" y="0px"
	 viewBox="0 0 3000 1992" style="enable-background:new 0 0 3000 1992;" xml:space="preserve">
<style type="text/css">
	.st0{fill:none;stroke:#001A73;stroke-miterlimit:10;}
</style>
<g>
	<polygon class="st0" points="1883.5,1714.6 1883.5,1583.1 1876,1571.6 1876,1355.6 1883.5,1353.1 1883.5,1340.6 1869.5,1327.6 
		1869.5,1286.6 1883.5,1286.6 1883.5,1230.1 1876.5,1226.6 1876.5,1010.1 1883.5,1010.1 1883.5,1002.6 1869.5,1002.6 1869.5,961.6 
		1883.5,959.8 1883.5,893.3 1869.5,893.3 1869.5,852.9 1876.5,849.2 1876.5,782.7 1869.5,782.7 1869.5,744.6 1876.5,738.1 
		1876.5,664.2 1883.5,657.7 1883.5,614.5 1935.8,563.4 1935.8,559.2 1957.2,536.9 1888.4,536.9 1888.4,530.8 2188.1,169.8 
		2329.9,169.8 2375.9,125.1 2620.8,125.1 2740.7,31.3 2819.2,31.3 2861.9,-0.8 2999.7,-0.8 2999.7,1991.2 2078.4,1991.2 
		2078.4,1755.2 2072.4,1746.6 2037,1746.6 2037,1924.6 1994.4,1924.6 1991,1915.9 1991,1741.2 1984.4,1728.6 1984.4,1840.6 
		1950.4,1840.6 1939.7,1819.2 1939.7,1663.2 1903.7,1607.9 1903.7,1728.6 1891,1728.6 	"/>
	<polyline class="st0" points="1892.6,535.3 2188.5,181.1 2247.3,181.1 2247.3,254.5 2257,244.1 2257,191.1 2308.5,191.1 	"/>
	<line class="st0" x1="1903.5" y1="532.5" x2="2197" y2="181.1"/>
	<line class="st0" x1="2204" y1="181.1" x2="1911.1" y2="530"/>
	<line class="st0" x1="2215" y1="181.1" x2="1918.1" y2="528.2"/>
	<line class="st0" x1="1928.9" y1="525" x2="2225" y2="181.1"/>
	<line class="st0" x1="1936.3" y1="522.8" x2="2233" y2="181.1"/>
	<line class="st0" x1="1945.5" y1="520.1" x2="2239.5" y2="181.1"/>
	<line class="st0" x1="1953.7" y1="517.8" x2="2246" y2="181.1"/>
	<line class="st0" x1="1961" y1="516.1" x2="2246" y2="191.1"/>
	<line class="st0" x1="1970.5" y1="512.8" x2="2246" y2="203.1"/>
	<line class="st0" x1="1980.3" y1="510" x2="2246" y2="216.1"/>
	<polyline class="st0" points="2216.9,1990.5 2216.9,1683.7 2244,1683.7 2336.1,1766.7 2336.1,1991.2 	"/>
	<polyline class="st0" points="2216.9,1683.7 2248.2,1719.3 2248.2,1991.2 	"/>
	<polyline class="st0" points="2248.2,1719.3 2300.5,1772.9 2300.5,1991.2 	"/>
	<polyline class="st0" points="2149.7,1791.2 2149.7,1952.6 2081.7,1855.2 	"/>
	<polygon class="st0" points="2131,1745.2 2109,1745.2 2057.7,1680.6 2057.7,1675.9 2078.4,1675.9 2078.4,1557.9 2057.7,1533.9 
		2057.7,1529.9 2081.7,1529.9 2131,1578.6 	"/>
	<line class="st0" x1="2107.7" y1="1577.9" x2="2107.7" y2="1745.2"/>
	<line class="st0" x1="2081.7" y1="1799.9" x2="2131" y2="1867.2"/>
	<line class="st0" x1="2131" y1="1927.9" x2="2131" y2="1768.6"/>
	<polyline class="st0" points="2241.7,1653.2 2212.4,1653.2 2145,1589.9 2145,1417.2 2171,1417.2 2241.7,1461.2 	"/>
	<polyline class="st0" points="2213.7,1466.6 2173,1438.6 2173,1588.6 2241.7,1647.2 	"/>
	<polygon class="st0" points="2216.9,1435.9 2305,1490.6 2336.1,1490.6 2336.1,1027.2 2216.9,1022.6 	"/>
	<polyline class="st0" points="2249,1029.9 2249,1432.6 2301.7,1463.9 	"/>
	<line class="st0" x1="2301.7" y1="1268.6" x2="2249" y2="1249.9"/>
	<line class="st0" x1="2301.7" y1="1225.2" x2="2249" y2="1209.9"/>
	<polyline class="st0" points="2057.7,1188.6 2080.4,1188.6 2131,1204.6 2131,1370.6 2109,1370.6 2057.7,1339.2 	"/>
	<line class="st0" x1="2085.7" y1="1201.9" x2="2085.7" y2="1335.9"/>
	<polyline class="st0" points="1914.4,1607.2 1914.4,1377.2 1890.4,1354.6 	"/>
	<polyline class="st0" points="1992.4,1447.2 1961.7,1420.6 1944.4,1420.6 1944.4,1539.2 1975.7,1577.9 	"/>
	<line class="st0" x1="1961" y1="1442.6" x2="1961" y2="1539.2"/>
	<line class="st0" x1="1995.7" y1="1535.2" x2="2031" y2="1575.2"/>
	<line class="st0" x1="2037.7" y1="1577.9" x2="2078.4" y2="1624.6"/>
	<line class="st0" x1="1995.7" y1="1586.6" x2="2067.7" y2="1675.9"/>
	<polyline class="st0" points="1992.4,1432.8 1952,1396 1952,1282.6 	"/>
	<line class="st0" x1="1992.4" y1="1384.4" x2="1963.7" y2="1362.3"/>
	<polyline class="st0" points="2071,1726.7 2037.7,1726.7 2037.7,1658 	"/>
	<line class="st0" x1="2078.4" y1="1454.9" x2="2131" y2="1499.2"/>
	<line class="st0" x1="2082" y1="1511.4" x2="2131" y2="1555.2"/>
	<line class="st0" x1="1996.8" y1="1242.7" x2="2032.4" y2="1259.2"/>
	<line class="st0" x1="2038.9" y1="1263" x2="2074.5" y2="1279.6"/>
	<polyline class="st0" points="1992.4,1158.7 1963.7,1148.8 1944.4,1148.8 1944.4,1268.6 1972.2,1286.9 	"/>
	<line class="st0" x1="1961" y1="1158.1" x2="1961" y2="1263"/>
	<polyline class="st0" points="1914.4,1010.8 1914.4,1242.7 1900.5,1242.7 	"/>
	<polyline class="st0" points="1952,1015.7 1952,1129.8 1992.4,1142.1 	"/>
	<polyline class="st0" points="1968.4,1015.7 1968.4,1089.4 1992.4,1095.5 	"/>
	<polygon class="st0" points="2149.5,1022.6 2149.5,1188.6 2081.4,1166.6 2081.4,1022.6 	"/>
	<polyline class="st0" points="2240.9,995.2 2213.9,995.2 2147.1,995.2 2147.1,822.5 2213.3,802.9 2240.9,802.9 	"/>
	<line class="st0" x1="2172.8" y1="826.8" x2="2172.8" y2="990.6"/>
	<polyline class="st0" points="2057.7,995.2 2131,995.2 2131,834.2 2108.4,831.1 2060.6,845.8 	"/>
	<polyline class="st0" points="1992.4,869.8 1972.2,869.8 1944.4,877.1 1944.4,995.2 1975.3,995.2 1992.4,995.2 	"/>
	<polyline class="st0" points="1900.5,890 1926.2,882 1926.2,993.1 1900.5,995.2 	"/>
	<line class="st0" x1="1996.2" y1="951.3" x2="2031.1" y2="947.7"/>
	<line class="st0" x1="2037.9" y1="947.7" x2="2076.5" y2="944.6"/>
	<polyline class="st0" points="1892.5,882 1914.4,874.1 1914.4,645.3 1900.5,645.3 1900.5,869.8 1875.9,878.3 	"/>
	<polyline class="st0" points="1972.2,702.9 1944.4,721.3 1944.4,605.4 1972.2,577.2 1996.2,577.2 	"/>
	<line class="st0" x1="1996.2" y1="658.8" x2="2031.1" y2="635.4"/>
	<line class="st0" x1="2037.9" y1="632.4" x2="2076.5" y2="604.8"/>
	<polyline class="st0" points="2058.8,653.8 2107.8,625 2107.8,460.6 2058.8,502.3 	"/>
	<polyline class="st0" points="2131,460.6 2131,622.6 2083.3,653.8 	"/>
	<polygon class="st0" points="2217.6,777.1 2246,777.1 2336,750.2 2336,285.2 2308.5,285.2 2217.6,363.8 	"/>
	<polyline class="st0" points="2246,760 2246,549.3 2246,366.2 2302.2,320.8 	"/>
	<line class="st0" x1="2302.2" y1="516.1" x2="2246" y2="549.3"/>
	<line class="st0" x1="2302.2" y1="557.2" x2="2246" y2="586.5"/>
	<line class="st0" x1="2131" y1="755" x2="2083.3" y2="770.8"/>
	<line class="st0" x1="1992.4" y1="807.2" x2="1961" y2="816.8"/>
	<polyline class="st0" points="2150,641.5 2150,802.9 2083.3,826.8 	"/>
	<polyline class="st0" points="1952,749.5 1952,862.2 1992.4,851.9 	"/>
	<polyline class="st0" points="2375.9,125.1 2375.9,1529.9 2375.9,1991.2 	"/>
	<line class="st0" x1="2898.5" y1="-0.8" x2="2898.5" y2="1991.2"/>
	<line class="st0" x1="2740.7" y1="31.3" x2="2740.7" y2="1991.2"/>
	<polyline class="st0" points="2375.9,400.6 2460.1,339.7 2740.7,339.7 	"/>
	<polyline class="st0" points="2375.9,495.3 2462.5,445.1 2740.7,445.1 	"/>
	<polyline class="st0" points="2375.9,658.8 2462.5,625.4 2740.7,625.4 	"/>
	<polyline class="st0" points="2375.9,755 2460.1,727.5 2740.7,727.5 	"/>
	<polyline class="st0" points="2375.9,920.1 2460.1,913.2 2740.7,913.2 	"/>
	<polyline class="st0" points="2375.9,995.2 2463.3,995.2 2740.7,995.2 	"/>
	<polyline class="st0" points="2375.9,1176.1 2459.2,1195.9 2740.7,1195.9 	"/>
	<polyline class="st0" points="2375.9,1268.6 2460.1,1297.1 2740.7,1297.1 	"/>
	<polyline class="st0" points="2375.9,1432.8 2460.9,1477.1 2740.7,1477.1 	"/>
	<polyline class="st0" points="2375.9,1692.3 2461.7,1759.8 2740.7,1759.8 	"/>
	<polyline class="st0" points="2375.9,1787 2462.5,1867.2 2740.7,1867.2 	"/>
	<line class="st0" x1="2462.5" y1="1867.2" x2="2462.5" y2="1759.8"/>
	<polyline class="st0" points="2375.9,1529.9 2462.5,1580.9 2740.7,1580.9 	"/>
	<line class="st0" x1="2460.9" y1="1477.1" x2="2462.5" y2="1580.9"/>
	<line class="st0" x1="2461.7" y1="1195.9" x2="2461.7" y2="1297.1"/>
	<line class="st0" x1="2460.1" y1="913.2" x2="2460.1" y2="995.2"/>
	<line class="st0" x1="2462.5" y1="625.4" x2="2462.5" y2="727.5"/>
	<line class="st0" x1="2462.5" y1="339.7" x2="2462.5" y2="445.1"/>
	<polyline class="st0" points="1888.4,536.9 1988.5,507.6 2246,229.6 	"/>
</g>
</svg>
